<?xml version="1.0" encoding="UTF-8"?>
<svg id="Layer_1" xmlns="http://www.w3.org/2000/svg" version="1.1" viewBox="0 0 1920 1080">
  <!-- Generator: Adobe Illustrator 29.8.4, SVG Export Plug-In . SVG Version: 2.1.1 Build 6)  -->
  <defs>
    <style>
      .st0, .st1 {
        fill: #231f20;
      }

      .st1 {
        fill-rule: evenodd;
      }
    </style>
  </defs>
  <path class="st1" d="M1352,734.1s3-1.7,3.7-1.6c1.7.4,2.2,9.1,1.9,10.6-1.5,7.5-12.9,13.8-19.4,12.8-4.4-.7-6.1-3.5-4.5-7.7,1.6-4.2,7.9-9.2,18.2-14.1M1341.1,703.8c0,9.8,8.7,16.8,13.2,25.1-3.6,1.8-14.1,7-17.3,9.5-12.3,9.2-16.9,23.2,5,23.2s21.9-5.9,26.3-14.8c2.5-5.1,2.2-11.4-.8-17.6,7.3-4,28.7-7.6,37.3-7.6h12.3c.9,0,1.8,0,1.8-1.2,0-2.4-4.6-3.1-11.8-2.8-16.4.3-37.3,5.2-41.9,7.6l-8.2-11.3c-5.5-8.9-5.9-17.4,3.2-23.5,2.7-1.8,6.8-3.1,10-3.1s6.8,1.2,6.8.6c.5-2.1-5-4.3-7.3-4.9-5-1.2-11.4,0-15.5,1.8-6.8,3.1-13.2,11.3-13.2,18.9Z"/>
  <path class="st1" d="M1225.2,722c-.3.8-.5,2,1.7,1.4,4.9-1.5,16.5-9.3,19.9-13.8,1.4-1.9,5.7-7.2,3.5-9.3-1.1-1.1-6.9.2-12.3,5-.9.8-5,4.8-8.1,8.9-2.7,3.5-4.4,7-4.7,7.8M1271.4,728.5c-.5,2.1-9.1,16.5-8.7,18.3.5,1.8,2.3,1.5,5,1.8,6.8.6,8.2-3.1,12.3-8.6,9.1-13.7,21.9-36.4,42.4-32.4,1.8.3,4.6,1.2,5.9,1.2,1.8.3,3.2-.6,2.7-3.4-.9-7-16.4-13.1-31.9,2.4l-13.2,14.7c.5-2.8,2.3-5.2,3.6-7.9,2.7-6.1,12.3-23.8,9.6-25.7-16.9-11.6-9.1,16.8-34.2,38.8-3.6,3.4-10.5,8.9-15,11-7.7,4.3-10.5,6.1-20,6.1s-10.5-7-8.2-15.3c1.4-4.3,0-2.1,8.2-4.6,3.6-.9,6.8-2.1,10-3.4,5-2.8,11.8-7,15-11.6,4.6-7,.5-14.7-6.4-16.2-7.3-1.5-14.6,2.8-19.1,6.1-9.6,7-33.7,37.9-12.8,48.6,13.2,6.4,29.1-.9,40.1-8.2,5.9-4.3,13.7-11.3,14.6-11.9Z"/>
  <path class="st1" d="M1027,704.3s-1.5,3-1.4,3.9c0,.9,1.6.8,3.4-.9,1.8-1.6,8.9-7.4,12.5-10.9,3.6-3.5,13.4-13.3,18.2-19.7,4.8-6.4,13.4-18.1,16.3-25.5,3-7.5,3.5-10.6,1.7-11.6-1.8-1-4.6.5-10.3,5.3-5.7,4.8-14.9,14.3-20.8,24.1-5.9,9.8-9.8,14.1-19.4,35.1M1008.6,731.6c0,4.9,1.4,9.2,2.7,12.5,5,8.6,15,7.6,21.9,4,7.7-4.6,15-12.5,18.7-17.1,0,4.9,1.8,8.9,4.6,11,21.4,17.1,52.4-23.2,46.9-39.7-1.4-3.4-3.2-5.5-5-5.8-3.6-.3-7.7,2.1-7.7,2.7s1.8,1.8,2.3,2.4c.5.6,1.8,1.8,1.8,7,0,8.9-7.7,18.6-12.3,23.5-3.2,3.4-11.8,10.4-17.3,8.6-9.6-3.7,2.7-26.3,6.8-31.8,2.7-3.4,6.4-6.4,10-8.3,5.9-3.1,11.8-4,11.8-6.7,0-5.2-11.8-4-17.8-1.2-18.2,9.5-21.9,27.8-24.6,32.4-1.8,2.8-4.6,5.8-6.8,8.3-4.6,4.6-10.5,11-18.7,11s-6.8-19.2-3.6-26.6c1.4-3.1,2.3-3.1,5-4.6,15.9-10.4,33.2-27.5,44.2-43.7,1.4-2.1,2.3-3.4,3.6-5.5,5-7,12.3-20.5,6.4-28.7-5-7.6-15.9-.3-20.5,2.7-3.6,2.1-8.2,7-10.9,10.1-5,5.8-13.7,17.7-17.3,24.1-5.9,9.5-6.4,10.4-10.9,19.6-5.5,11-13.2,27.2-13.2,39.7Z"/>
  <path class="st1" d="M704,770.5c.2,0,5.4-1.4,5.4-1s-1.4,4-2.2,5.8c-.8,1.8-10.8,24-23,35.8-12.2,11.8-28.5,28.2-41.1,16.6-12.6-11.5,3.4-30.9,11.9-37,8.5-6,18.6-14.3,49-20.3M726.7,719.1c-.5,2.4-3.6,11-4.6,13.4-.9,2.4-5.5,16.8-7.7,23.5-.5,1.2-2.3,5.5-2.3,5.5-3.2.3-7.8.7-14.1,2.1-23.1,5.3-48.8,14.9-61.4,30.4-9,11.1-12.2,29.7.6,39.3,8.2,6.1,20.3,5.3,31.2.4,7.1-3.2,12.5-8.4,18.2-13.8,17.8-18,31-49.2,32.8-52.2,25-2.4,57.4,2.1,87,12.5,18.2,6.4,44.2,12.2,63.3,5.5.9-.3,6.9-2.7,12-6.5,5.4-4,9.9-10.5,8.5-10.7-.6,0-.7,0-2.5,1.7-17.2,16.2-34.4,15.5-57.2,11.2-6.9-1.3-13.2-3.7-20-5.8-20-5.8-41.9-13.8-63.3-14.7-9.1-.3-16.4-.9-25,0l11.8-30.2c1.8-5.5,3.2-10.4,5-15.9,1.8-7.3,6.4-12.5,5-16.2-.9-2.1-5.5-3.7-8.2-.6-2.3,2.7-6.8,11.3-8.7,14.1-4.6,7-18.7,21.7-25,26-2.3,1.5-4.1,3.1-5.5.9-.5-.6-.5-4,.5-7.9s3.6-9.5,6.4-13.7c2.3-3.4,3.6-5.5,5.9-8.6,2.3-3.4,6.8-7.9,5-10.1-3.2-4.3-7.7-2.1-12.3,2.8-12.8,13.4-27.3,51-5,44.3,9.6-3.1,22.8-16.2,27.3-23.2l2.3-3.4Z"/>
  <path class="st1" d="M777.7,725.8c-.9,3.1-8.2,15.9-1.4,21.7,1.4,1.2,4.6,2.4,6.8,2.4,6.8.3,14.1-6.1,17.8-9.8,1.4-1.5,5-5.5,5.5-5.2.9.6-4.1,7.9-4.1,9.2-.5,2.4,2.3,4.3,5.9,4.3,3.2.3,3.6-2.4,5-4.6,4.1-8.6,10.5-15.9,16.4-22.9,4.6-5.2,9.6-10.7,15.5-14.7,5.9-4,11.4-5.8,8.2,2.4-3.2,8.6-7.7,14.1-10,21.4-9.1,27.8,12.8,25.4,26,15.3,2.7-2.1,24.1-22.6,20.9-26-1.4-1.2-4.1,2.4-5,4-5.5,7.3-16.9,19.9-25.5,22.9-3.6,1.2-6.4,1.2-7.3.6-.9-.6-.9-2.7-.9-4.9,0-3.1.9-9.8,1.8-13.1,1.8-6.1,20.5-24.7,9.1-32.1-7.7-4.9-23.2,6.7-28.2,12.2-4.1,4.6-7.7,8.6-12.3,13.1.5-1.2,9.6-19.2,9.6-21.7s-1.4-3.7-3.6-4c-9.1-.9-10.5,22.9-23.7,35.1-5.9,5.2-12.8,14.4-18.2,12.2-4.1-1.8,0-15.3,3.6-21.7.9-1.5,3.6-6.4,6.4-10.1.9-1.2,3.6-3.7,3.6-4.6s-.9-1.8-2.7-2.4c-1.8-.6-6.8-.9-9.1,2.4-3.6,4.6-9.1,9.8-13.2,14.7-4.1,5.2-12.3,12.8-17.8,16.2-9.1,6.1-3.6-11,1.8-19.2,5.5-7.9,15-17.7,24.6-19.9,15-2.7,11.8,3.4,15.9,4,2.7.3.5-7.9-4.6-9.8-6.4-2.1-19.6,0-27.8,5.5-9.1,6.1-17.3,15.6-20.5,20.8-10.9,16.2-5,31.2,5.9,27.5,9.6-3.4,23.2-19.9,25.5-21.4"/>
  <path class="st1" d="M1188.1,689.7c0,2.4,2.3,7,3.2,8.9,1.4,2.1,3.6,4.9,3.6,8.2,0,15-14.6,34.2-23.2,34.2s-3.6-23.8-.5-30.2c.9-1.8,6.8-10.4-2.7-10.4s-7.7,9.5-19.1,20.8l-10,10.7c-2.3,2.7-8.2,8.6-11.8,8.6-5.9,0,.5-11.6,1.4-12.8,2.7-4.9,14.1-22,14.1-25.4s-3.6-6.1-6.4-6.1-23.7,8.6-23.7,14.4,11.8-7,19.1-8.9c-.5,2.4-3.6,7-6.8,11-5,7.3-10.9,16.5-12.3,25.1-2.7,16.2,17.8,13.4,35.5-7.6,2.3-2.7,4.1-6.1,7.3-7.9-.5,2.1-1.4,4-1.4,6.4,0,22,22.8,26.9,38.7,1.8,7.3-10.7,9.6-19.2,9.6-33.6s-14.6-17.1-14.6-7"/>
  <path class="st1" d="M511.3,693.4c.9,0,.9-1.8,0-4.9-2.7-7-3.2-12.5,0-19.9,3.6-8.9,12.8-16.2,21.4-20.2,33.7-15.3,84.7-9.5,120.2-4.3,22.8,3.4,40.5-.3,51.9-3.4.9-.3.5-2.1,0-2.1-4.1.6-10.5,1.2-18.7.9-28.7-.6-44.2-5.8-71.5-8.9-30.5-3.4-55.1-1.8-81.1,8.2-9.1,3.7-22.3,11.9-27.3,20.8-2.3,3.7-4.6,7.9-4.6,14.1,0,10.4,4.1,19.2,9.6,19.6"/>
  <path class="st1" d="M930.7,709.3c0,6.7,8.7-3.1,20.9-3.4-4.1,14.1-18.2,51.3-31.9,62-5,4-9.1,4.9-9.1,5.5,0,.9,3.6,1.2,8.2,0,3.6-1.2,8.2-4.3,9.6-5.2,20.9-16.8,29.6-46.7,35.5-62.3,10.5-.6,22.3-.3,33.2-.3s8.2.6,8.7-3.4c0-2.4-1.8-2.8-4.6-3.1-8.2-.9-20.5-1.8-34.6-.6,4.1-13.4,14.1-33,21.9-44.9.5-.9,4.1-6.7,1.4-6.7-6.4,0-10.5,3.4-14.1,7.9-3.2,4.3-6.8,11.3-9.1,15.6-5,9.5-8.2,19.2-12.3,28.7-8.2.9-23.7,3.1-23.7,10.1"/>
  <path class="st1" d="M634.7,735.6c-1.8,2.4-3.2,7.6-2.3,9.8.9.9,6.8-.9,10.9-.9,5.5-.3,7.7.3,11.8,1.2,5,1.2,17.3,6.7,21.4,2.4,2.3-2.4,1.8-6.7-.5-9.5-3.2-3.7-3.6.6-8.7.6-5.5.3-22.8-.3-26,1.2,0-2.4,6.8-8.9,9.1-11,7.7-7.9,15.9-15,25-21.1,2.3-1.5,4.6-2.7,6.8-4.3,1.8-1.5,4.6-4.6,3.2-7.6-1.8-5.2-12.8-3.1-19.1-3.4-5-.3-18.7-.6-21.9,2.7-.9.6-1.8,2.7-.5,3.7,1.8,1.2,5.9-1.5,8.2-2.1,6.8-1.5,15.5,0,21.4.6l-15.9,11.9c-5.5,4.6-31.4,27.8-36,30.9-16.4,10.1-16.4-4.9-7.3-20.8,1.4-2.1,2.3-3.7,3.6-5.8,1.8-3.7,11.4-17.1,2.7-18-3.6-.6-5,2.1-6.4,4.3-1.4,1.8-2.3,6.1-5,10.7-2.3,4-5.9,9.8-7.3,14.1-8.7,24.7,5.5,31.2,26.9,14.4,1.8-1.5,4.1-3.4,5.5-4"/>
  <path class="st0" d="M1061.9,298.4c-29.6-29.6-70.6-48-115.8-48s-86.2,18.3-115.8,48c-29.6,29.6-48,70.6-48,115.8s18.3,86.2,48,115.8c29.6,29.6,70.6,48,115.8,48s86.2-18.3,115.8-48c29.6-29.6,48-70.6,48-115.8s-18.3-86.2-48-115.8M946.1,241.9c47.6,0,90.6,19.3,121.8,50.5,31.2,31.2,50.5,74.2,50.5,121.8s-19.3,90.6-50.5,121.8c-31.2,31.2-74.2,50.5-121.8,50.5s-90.6-19.3-121.8-50.5c-31.2-31.2-50.5-74.2-50.5-121.8s19.3-90.6,50.5-121.8c31.2-31.2,74.2-50.5,121.8-50.5Z"/>
  <path class="st0" d="M1048.1,312.2c-26.1-26.1-62.2-42.2-102-42.2s-75.9,16.1-102,42.2c-26.1,26.1-42.2,62.2-42.2,102s16.1,75.9,42.2,102c26.1,26.1,62.2,42.2,102,42.2s75.9-16.1,102-42.2c26.1-26.1,42.2-62.2,42.2-102s-16.1-75.9-42.2-102M946.1,261.4c42.2,0,80.3,17.1,108,44.7,27.6,27.6,44.7,65.8,44.7,108s-17.1,80.3-44.7,108c-27.6,27.6-65.8,44.7-108,44.7s-80.3-17.1-108-44.7c-27.6-27.6-44.7-65.8-44.7-108s17.1-80.3,44.7-108c27.6-27.6,65.8-44.7,108-44.7Z"/>
  <path class="st1" d="M1001.5,382.4s11-12.2,25-15.1c13.9-2.8,20.1-1.5,23.9-.6,3.8.9,11.1,6.2,10,11.4-1.1,5.2-6.9,9.8-14.9,10.7-8,.9-23.4,3.6-44-6.4M955.5,448.1c-.1.5-1.6,5.6-2.3,7.7-.7,2.1-11.2,30.3-15.1,38.8-3.9,8.5-15.2,23.2-23.7,25.7-8.5,2.5-20.7,1-23.3-10.3-2.6-11.3,1-24.9,14.4-37.7,21.9-20.8,49.7-24.1,50-24.2ZM995.1,438s-.8,1.8-.4,2.3c.4.5,1.9,0,4-.9,2.1-.9,5.9-3.5,7.1-5.1,1.2-1.6,3.2-4.3,2.3-5.6-1-1.3-4.4-.4-6.6,1.5-2.1,1.7-4,3.7-6.4,7.8ZM862.5,459.6c-17.8,0-17-15.1-12.3-23.2,2.8-4.8,6.6-6.2,5.5-7.3-.8-.8-3.4,1-5.2,2.3-11,8.7-8.4,32.6,10.7,32.6s34.3-19.6,42.7-36.8c1-2.1,2.3-4.4,3.4-8.1,1.6,3.8,4.3,8,8.3,11.1,4.9,3.8,13.7,5.8,18.3,4,1.8-.7,2.3-2.8,1.4-2.7-5.9,0-11.5-.8-15-4-13.2-12-7.6-45.1,19-48.4,13.9-1.7,33.2,2,45.8,7.7-17.6,21.3-23.6,44.8-28.5,57-11.6,1.6-27.2,7.8-28.8,8.7-4.1,2.1-10.9,5.7-16.4,10-14.8,11.4-29.6,29.3-22.8,49.8,5,12.8,21.3,16,34.9,9,4.1-1.8,11.8-7.3,14.6-10.7,17.1-21.7,23.1-43.5,30.4-63.8l16.9-1.2c-.3,2.1-1.1,3.5-1.1,10.8s.5,12.1,6,12.1c0-2.5-.4-7.2-.3-11.5.2-4.3.9-8.2,2.1-11.7,2.8-2.3,13.8-2.4,18.4-11.9,4.6-8.9-6.8-13.7-16.4-3.1-3.5,3.2-5.5,7.3-7.7,11.6-4.8.4-12.3,1-16.8,1.3,4-15.8,13.2-37.1,22.7-50.8,2.7-3.1,2.7-2.7,10.5-.3,16.4,4.9,33.2,5.8,49.2-.6,23.7-9.8,12.6-34.4-22.4-28.6-15.9,2.5-26.5,9.2-36.6,16.2-3.1-1.2-6.9-2.4-9.3-3.2-36.5-12.4-59.2,2.8-60.3,3.7,1.5-5.5,9.9-29.4,14.6-36,3.1-4.4,9.9-8.9,8.3-9.3-16.8-4-28.7,32.7-33.2,43.7-7.7,19.6-19.2,57.8-32.9,71.3-3.6,4-11.7,10.3-17.7,10.3Z"/>
  <path class="st1" d="M940.8,322.7c-29.6-4-25-4.3-54.7-4.3s-52.4,14.7-52.4,35.7,31.4,28.1,49.6,14.7c3.2-2.4,8.7-6.4,10.5-9.5.9-1.2,3.6-6.4.5-4.9-2.7.9-11.4,18-35.1,18-33.7,0-30.5-46.4,25.5-46.4s26.9,1.2,46.5,3.7c22.8,3.4,51,10.4,72.4.9,5-2.1,12.8-7.6,12.8-14.1s-3.6.9-4.6,2.1c-12.3,13.7-51.5,6.7-71,4"/>
  <path class="st1" d="M507.6,768.3c0,.6,1.8,1.8,4.6,2.4,2.7.6,7.3,1.5,12.3,1.5,9.1,0,22.8-6.7,33.2-17.4,10.5-10.7,17.8-24.4,25.5-43.7,6.4-16.8,14.6-45.2,27.8-59.6,2.3-3.1,7.3-8.6,0-7-16.4,3.7-39.2,65.4-43.7,75.5-8.2,16.8-18.2,36.4-33.7,44.6-5.9,3.1-11.8,4.6-17.3,4.6s-8.7-1.5-8.7-.9"/>
  <path class="st1" d="M905.2,662.8c0,3.7,1.4,6.4,3.6,6.1,2.3,0,3.2-5.5,4.6-9.2,2.3-4.6,8.7-10.4,16.9-13.4,33.7-12.5,61.9,3.1,78.3,3.1s18.7,2.4,32.3-6.7c1.4-.9,3.2-2.4,2.7-3.4-.5-.9-5.5.9-9.1,1.8-20,4.6-66.5-18.3-105.7-2.1-4.6,2.1-12.8,6.7-17.8,12.5-2.7,3.1-5.9,7.9-5.9,11.3"/>
  <path class="st1" d="M621.9,680.9c0,8.3,15,4,15-7s-15,.9-15,7"/>
</svg>